<mxfile host="Electron" modified="2023-12-25T11:54:47.486Z" agent="Mozilla/5.0 (Windows NT 10.0; Win64; x64) AppleWebKit/537.36 (KHTML, like Gecko) draw.io/22.1.11 Chrome/114.0.5735.289 Electron/25.9.8 Safari/537.36" etag="NAbEveCE39yMniuYw0XB" version="22.1.11" type="device">
  <diagram name="第 1 页" id="S035Yuum9YEWtDu5IJW6">
    <mxGraphModel dx="683" dy="402" grid="1" gridSize="10" guides="1" tooltips="1" connect="1" arrows="1" fold="1" page="1" pageScale="1" pageWidth="827" pageHeight="1169" math="0" shadow="0">
      <root>
        <mxCell id="0" />
        <mxCell id="1" parent="0" />
        <mxCell id="hNDj4QMWjR-7tIw_wkel-1" value="PBaseDefenseGame" style="swimlane;fontStyle=1;align=center;verticalAlign=top;childLayout=stackLayout;horizontal=1;startSize=26;horizontalStack=0;resizeParent=1;resizeParentMax=0;resizeLast=0;collapsible=1;marginBottom=0;whiteSpace=wrap;html=1;" vertex="1" parent="1">
          <mxGeometry x="334" y="250" width="160" height="34" as="geometry" />
        </mxCell>
        <mxCell id="hNDj4QMWjR-7tIw_wkel-3" value="" style="line;strokeWidth=1;fillColor=none;align=left;verticalAlign=middle;spacingTop=-1;spacingLeft=3;spacingRight=3;rotatable=0;labelPosition=right;points=[];portConstraint=eastwest;strokeColor=inherit;" vertex="1" parent="hNDj4QMWjR-7tIw_wkel-1">
          <mxGeometry y="26" width="160" height="8" as="geometry" />
        </mxCell>
        <mxCell id="hNDj4QMWjR-7tIw_wkel-5" value="ICamp" style="swimlane;fontStyle=1;align=center;verticalAlign=top;childLayout=stackLayout;horizontal=1;startSize=26;horizontalStack=0;resizeParent=1;resizeParentMax=0;resizeLast=0;collapsible=1;marginBottom=0;whiteSpace=wrap;html=1;" vertex="1" parent="1">
          <mxGeometry x="334" y="360" width="160" height="34" as="geometry" />
        </mxCell>
        <mxCell id="hNDj4QMWjR-7tIw_wkel-6" value="" style="line;strokeWidth=1;fillColor=none;align=left;verticalAlign=middle;spacingTop=-1;spacingLeft=3;spacingRight=3;rotatable=0;labelPosition=right;points=[];portConstraint=eastwest;strokeColor=inherit;" vertex="1" parent="hNDj4QMWjR-7tIw_wkel-5">
          <mxGeometry y="26" width="160" height="8" as="geometry" />
        </mxCell>
        <mxCell id="hNDj4QMWjR-7tIw_wkel-15" style="edgeStyle=none;rounded=0;orthogonalLoop=1;jettySize=auto;html=1;exitX=0;exitY=0.5;exitDx=0;exitDy=0;entryX=1;entryY=0.5;entryDx=0;entryDy=0;endArrow=open;endFill=0;" edge="1" parent="1" source="hNDj4QMWjR-7tIw_wkel-7" target="hNDj4QMWjR-7tIw_wkel-5">
          <mxGeometry relative="1" as="geometry" />
        </mxCell>
        <mxCell id="hNDj4QMWjR-7tIw_wkel-18" style="edgeStyle=none;rounded=0;orthogonalLoop=1;jettySize=auto;html=1;exitX=0.5;exitY=0;exitDx=0;exitDy=0;entryX=0.75;entryY=1;entryDx=0;entryDy=0;endArrow=diamondThin;endFill=1;" edge="1" parent="1" source="hNDj4QMWjR-7tIw_wkel-7" target="hNDj4QMWjR-7tIw_wkel-1">
          <mxGeometry relative="1" as="geometry" />
        </mxCell>
        <mxCell id="hNDj4QMWjR-7tIw_wkel-7" value="CampInfoUI" style="swimlane;fontStyle=1;align=center;verticalAlign=top;childLayout=stackLayout;horizontal=1;startSize=26;horizontalStack=0;resizeParent=1;resizeParentMax=0;resizeLast=0;collapsible=1;marginBottom=0;whiteSpace=wrap;html=1;" vertex="1" parent="1">
          <mxGeometry x="560" y="360" width="160" height="34" as="geometry" />
        </mxCell>
        <mxCell id="hNDj4QMWjR-7tIw_wkel-8" value="" style="line;strokeWidth=1;fillColor=none;align=left;verticalAlign=middle;spacingTop=-1;spacingLeft=3;spacingRight=3;rotatable=0;labelPosition=right;points=[];portConstraint=eastwest;strokeColor=inherit;" vertex="1" parent="hNDj4QMWjR-7tIw_wkel-7">
          <mxGeometry y="26" width="160" height="8" as="geometry" />
        </mxCell>
        <mxCell id="hNDj4QMWjR-7tIw_wkel-17" style="edgeStyle=none;rounded=0;orthogonalLoop=1;jettySize=auto;html=1;exitX=0.5;exitY=0;exitDx=0;exitDy=0;entryX=0.25;entryY=1;entryDx=0;entryDy=0;endArrow=diamondThin;endFill=1;" edge="1" parent="1" source="hNDj4QMWjR-7tIw_wkel-9" target="hNDj4QMWjR-7tIw_wkel-1">
          <mxGeometry relative="1" as="geometry" />
        </mxCell>
        <mxCell id="hNDj4QMWjR-7tIw_wkel-9" value="CampSystem" style="swimlane;fontStyle=1;align=center;verticalAlign=top;childLayout=stackLayout;horizontal=1;startSize=26;horizontalStack=0;resizeParent=1;resizeParentMax=0;resizeLast=0;collapsible=1;marginBottom=0;whiteSpace=wrap;html=1;" vertex="1" parent="1">
          <mxGeometry x="120" y="360" width="160" height="34" as="geometry" />
        </mxCell>
        <mxCell id="hNDj4QMWjR-7tIw_wkel-10" value="" style="line;strokeWidth=1;fillColor=none;align=left;verticalAlign=middle;spacingTop=-1;spacingLeft=3;spacingRight=3;rotatable=0;labelPosition=right;points=[];portConstraint=eastwest;strokeColor=inherit;" vertex="1" parent="hNDj4QMWjR-7tIw_wkel-9">
          <mxGeometry y="26" width="160" height="8" as="geometry" />
        </mxCell>
        <mxCell id="hNDj4QMWjR-7tIw_wkel-14" style="edgeStyle=none;rounded=0;orthogonalLoop=1;jettySize=auto;html=1;exitX=0.5;exitY=0;exitDx=0;exitDy=0;endArrow=block;endFill=0;" edge="1" parent="1" source="hNDj4QMWjR-7tIw_wkel-11" target="hNDj4QMWjR-7tIw_wkel-5">
          <mxGeometry relative="1" as="geometry" />
        </mxCell>
        <mxCell id="hNDj4QMWjR-7tIw_wkel-11" value="SoldierCamp" style="swimlane;fontStyle=1;align=center;verticalAlign=top;childLayout=stackLayout;horizontal=1;startSize=26;horizontalStack=0;resizeParent=1;resizeParentMax=0;resizeLast=0;collapsible=1;marginBottom=0;whiteSpace=wrap;html=1;" vertex="1" parent="1">
          <mxGeometry x="334" y="480" width="160" height="34" as="geometry" />
        </mxCell>
        <mxCell id="hNDj4QMWjR-7tIw_wkel-12" value="" style="line;strokeWidth=1;fillColor=none;align=left;verticalAlign=middle;spacingTop=-1;spacingLeft=3;spacingRight=3;rotatable=0;labelPosition=right;points=[];portConstraint=eastwest;strokeColor=inherit;" vertex="1" parent="hNDj4QMWjR-7tIw_wkel-11">
          <mxGeometry y="26" width="160" height="8" as="geometry" />
        </mxCell>
        <mxCell id="hNDj4QMWjR-7tIw_wkel-16" style="edgeStyle=none;rounded=0;orthogonalLoop=1;jettySize=auto;html=1;exitX=0;exitY=0.5;exitDx=0;exitDy=0;entryX=1;entryY=0.5;entryDx=0;entryDy=0;endArrow=diamond;endFill=1;" edge="1" parent="1" source="hNDj4QMWjR-7tIw_wkel-5" target="hNDj4QMWjR-7tIw_wkel-9">
          <mxGeometry relative="1" as="geometry" />
        </mxCell>
      </root>
    </mxGraphModel>
  </diagram>
</mxfile>
